<svg version="1.1" id="Layer_1" xmlns="http://www.w3.org/2000/svg" xmlns:xlink="http://www.w3.org/1999/xlink" x="0px" y="0px" width="14px" height="14px" viewBox="0 0 14 14" enable-background="new 0 0 14 14" xml:space="preserve"><g><polygon fill="#666666" points="6.396,1.251 2.979,4.669 0.633,4.669 0.016,5.278 0.016,8.732 0.575,9.288 2.951,9.288 6.397,12.737 7.037,12.737 7.037,1.253 "/><g><path fill="#666666" d="M12.92,6.979c0,1.721-0.587,3.304-1.569,4.562l0.347,0.348c1.414-1.167,2.318-2.933,2.318-4.91c0-1.976-0.904-3.743-2.318-4.91l-0.347,0.348C12.333,3.679,12.92,5.258,12.92,6.979z"/></g><g><path fill="#666666" d="M9.633,6.979c0,0.993-0.301,1.923-0.818,2.688l0.412,0.41C10.02,9.284,10.51,8.19,10.51,6.979c0-1.208-0.49-2.303-1.283-3.096L8.814,4.294C9.332,5.06,9.633,5.985,9.633,6.979z"/></g></g></svg>